<?xml version="1.0" encoding="UTF-8"?>
<svg id="Calque_2" xmlns="http://www.w3.org/2000/svg" viewBox="0 0 127.97 129.06">
  <defs>
    <style>
      .cls-1 {
        fill: #ffc200;
        stroke: #ffd400;
      }

      .cls-1, .cls-2 {
        stroke-miterlimit: 10;
      }

      .cls-2 {
        fill: #ffac00;
        stroke: #ffaf00;
      }
    </style>
  </defs>
  <g id="rond_globules">
    <g id="Calque_22">
      <path class="cls-1" d="M90.63.88c-11.62,3.17-52,6-82,63s32,68.44,41,63.72,50.78-10.04,71.89-62.88C142.63,11.88,101.63-2.12,90.63.88ZM107.63,35.88c-1,16-54,51-62,32C36.63,25.88,92.63,10.88,92.63,10.88h.89c15.89-1,15.11,9,14.11,25Z"/>
      <path class="cls-2" d="M38.3,53.88s7-21,18-24c-9,16-16,29-8,41,1,2,9.04,6.44,29.02-4.78s-5,26.22-19.51,25.5-25.51-16.72-19.51-37.72Z"/>
      <path class="cls-2" d="M10.3,72.88s-4,48,38,40,32-9,35-10-23.1,25.26-36,25-31.93,4.23-45.46-26.38c.46-15.62,6.46-27.62,8.46-28.62Z"/>
    </g>
  </g>
</svg>